<svg xmlns="http://www.w3.org/2000/svg" width="20" height="20" fill="none"><path fill="#E5E5E5" d="M0 0h20v20H0z"/><g clip-path="url(#a)"><path fill="#F2F2F2" d="M-914-22H366v3556.86H-914z"/><g filter="url(#b)"><path fill="#fff" d="M-874-22H326v3556.86H-874z"/><path fill="#fff" d="M-874-22H326v64H-874z"/><path fill="#000" d="m19.5 18-3.7-3.67c1-1.3 1.7-2.98 1.7-4.87a8 8 0 0 0-8-7.96c-4.4 0-8 3.68-8 8.06a8 8 0 0 0 12.9 6.26l3.7 3.68 1.4-1.5Zm-10-2.48a6 6 0 0 1-6-5.96 6 6 0 0 1 12 0 6 6 0 0 1-6 5.96Z"/></g></g><defs><clipPath id="a"><path fill="#fff" d="M-914-22H366v3556.86H-914z"/></clipPath><filter id="b" width="1230" height="3586.86" x="-889" y="-37" color-interpolation-filters="sRGB" filterUnits="userSpaceOnUse"><feFlood flood-opacity="0" result="BackgroundImageFix"/><feColorMatrix in="SourceAlpha" result="hardAlpha" values="0 0 0 0 0 0 0 0 0 0 0 0 0 0 0 0 0 0 127 0"/><feOffset/><feGaussianBlur stdDeviation="7.5"/><feColorMatrix values="0 0 0 0 0 0 0 0 0 0 0 0 0 0 0 0 0 0 0.2 0"/><feBlend in2="BackgroundImageFix" result="effect1_dropShadow_0_1"/><feBlend in="SourceGraphic" in2="effect1_dropShadow_0_1" result="shape"/></filter></defs></svg>